<svg xmlns:svg="http://www.w3.org/2000/svg" xmlns="http://www.w3.org/2000/svg" viewBox="0 0 325.5 144" version="1.1"<g transform="translate(-212.24968,-460.35175)"><g transform="matrix(1.25,0,0,1.25,-93.750001,-133.09055)"><path d="m463 569.2c-11.9-2.4-27.4-3-34-3l-156.6 0c-9.7 0-19.8 0-25-8-5.2-8.1-2.4-16 6.4-31.9 0.7-1.2 27.5-51.6 27.5-51.6 0 0 2.7 3.4 5.5 5.6 2.7 2.1 5.5 3.3 13 3.3 13.3 0 98.9-0.2 99.8-0.2 17.4 0 34.9 1.8 46.3 14.3 5.9 0.6 25 3.1 40.7 10.7 9.2 4.4 15.3 11 17.6 19 0.7 2.4 1 5 1 7.6 0 7.6-2.8 16-8.4 24.8-11.8 18.5-22.7 25-23.2 25.3-6.7 4.7-13.2 4.9-13.2 4.9 0 0 5.8-6.7 7.8-13.3 2-6.6-5.2-7.4-5.2-7.4z" fill="#fff" class="logo-background"/><path d="M484.7 512.4C466.8 503.8 443.8 502 443.8 502 433.7 489.7 416.8 487.9 399.6 487.9c0 0-86.3 0.2-99.8 0.2-15.6 0-17.2-6.2-17.2-6.2l-21 39.2c0 0 37.3 0 54.4 0 17.1 0 18-1.7 29.3-10.1 12.1-8.9 21.7-12.1 33.1-12.1 11.4 0 18.9 2.6 31.6 8.2 12.7 5.6 19.4 8.3 27 5.1 0 0-5.9 8-23.9 0.5-18-7.5-22.8-9.1-33.7-9.1-10.8 0-23.1 5.2-38.6 20.6l18.4 14.8c0 0-4.3 6.6-7.1 10.8-2.8 4.2-2.5 7-1 9.1 1.5 2.1 3.4 3 10.2 3 6.8 0 61.4-0.1 67.5-0.1 5.3 0 21.9 0.5 34.9 3.1 17.2 3.4 6.1 18 6.1 18 0 0 11.5-7.6 23-25.5 12.7-20 9.6-36.3-8.3-44.9z" fill="#00295e"/><path d="m453 515.6c-8.1-1.9-1.2-6.7-1.2-6.7-11.7 2.4-16.1 11.9-17.1 14.6-0.2 0.4-0.4 0.7-0.6 1.1-6.5 13-12.3 12.3-23.4 12.3-4.5 0-11.3 0-19 0-15.4 0-22.5 7.6-29.9 20.6l8.7 0c7.9-11.8 13.9-15 29.6-15.9 35.8 0 64.4 10.3 79.5 18.2 21.5-36.1-10.4-42-26.7-44.3zM386.3 557.5c4-6.1 12.2-8.1 25.3-7.4 32.4 1.9 51.1 8.2 65.5 13.6-17.9-10.5-49.7-18-71.8-17.9-10.8 0-20.3 1.9-25.8 11.7l6.8 0zM421.1 521.7c-4.2 5.9-9.8 7.9-25.6 6.8-18.4-1.2-13.6-9-11.5-12.8 0 0 0 0-0.1 0 0.6-1.1 1.6-2.9 2.6-4.7-14.1-0.9-24.3 10-24.3 10 10.5 10.4 17.5 11.5 27 11.5 3.3 0 8 0 17.7 0 16.5 0 20.5-7.4 22-10.7-2.8 0.4-5.4 0.3-7.8 0z" fill="#fff"/><path d="m413.1 519.9c-0.3-0.1-0.7-0.3-1-0.4-1.6 1.7-4.4 2.7-7.1 2.3-3.6-0.5-5.6-3-4.6-5.8 0.1-0.4 0.4-0.8 0.6-1.1-1.8-0.7-3.7-1.4-5.4-2-3.7 5.9-5.8 9.8 6.9 10.9 7.9 0.7 10-0.7 11.7-3.5-0.3-0.1-0.7-0.2-1-0.4z" fill="#4dbd38" class="logo-eye"/><path d="m349.4 542.4c-6.5 11.4-9.1 14-4.5 19.4 0 0-59.3 0-72.5 0-10.7 0-17.6-0.4-21.2-5.9-3.5-5.4-2.8-10.5 6.6-27.3 0 0 51 0 61.6 0 10.6 0 13.3 0.6 19.1 5.1 5.8 4.5 10.9 8.8 10.9 8.8z" fill="#b2b7bb"/></g></g></svg>